<svg id="Layer_1" data-name="Layer 1" xmlns="http://www.w3.org/2000/svg" width="0.32in" height="0.31in" viewBox="0 0 22.76 22.32"><defs><style>.cls-1{fill:#3a3a3a;}</style></defs><title>addNow</title><path class="cls-1" d="M22.65,3.91a.68.68,0,0,0-.57-.31H5.46L4.23.57A.88.88,0,0,0,3.52,0H1A1,1,0,1,0,1,2H2.9L7,12.16l-1,4a.89.89,0,0,0,.16.76.88.88,0,0,0,.69.33H18.26a.89.89,0,0,0,0-1.77H8L8.8,12.3H18.85a.69.69,0,0,0,.63-.41L22.7,4.55A.68.68,0,0,0,22.65,3.91ZM20.07,7.13H16.35V5h4.74ZM8.43,10.94,7.36,8.31h2.81v2.63Zm2.93-2.63h3.88v2.63H11.35Zm0-1.24V5h3.88V7.13ZM10.17,5V7.13H6.89L6,5Zm8.23,6h-2V8.31h3.15Z"/><circle class="cls-1" cx="17.06" cy="20.52" r="1.8"/><circle class="cls-1" cx="7.57" cy="20.52" r="1.8"/></svg>