<svg id="c9546035-7304-4261-826b-ef4cbfd8dd23" data-name="d25f04ad-459d-4496-9b10-1ab88b68ae34" xmlns="http://www.w3.org/2000/svg" width="23.31" height="22.32" viewBox="0 0 23.31 22.32"><title>addNow</title><path d="M3.66,0H0V2H3L7.1,12.16,5.91,17.25H19.4V15.48H8.14l.8-3.18H19.49l3.82-8.71H5.6L4.13,0ZM20.21,7.13H16.49V5h4.74ZM8.57,10.94,7.5,8.31h2.81v2.63ZM11.5,8.31h3.88v2.63H11.49Zm0-1.24V5h3.88V7.13ZM10.31,5V7.13H7L6.14,5Zm8.23,6h-2V8.31h3.15Z"/><circle cx="17.2" cy="20.52" r="1.8"/><circle cx="7.71" cy="20.52" r="1.8"/></svg>