<svg id="88af8dec-14df-4f2b-814d-40bdf6bd8118" data-name="Layer 1" xmlns="http://www.w3.org/2000/svg" width="24.48" height="23.66" viewBox="0 0 24.48 23.66"><title>bulkDeals-icon</title><rect x="0.52" y="4.27" width="19.25" height="1.04"/><rect x="8.28" y="4.79" width="4.52" height="4.52"/><polyline points="12.8 4.79 12.05 0.52 9.02 0.52 8.28 4.79"/><path d="M20.27,11.5V4.69L17.27,0H3L0,4.69V21.46H13.38a6.28,6.28,0,1,0,6.89-10Zm-7.7,8.93H1V5L3.59,1H16.71l2.54,4v6.2a6.29,6.29,0,0,0-7.34,6.2,6.26,6.26,0,0,0,.76,3Zm5.63,2.25a5.25,5.25,0,1,1,5.25-5.25A5.25,5.25,0,0,1,18.2,22.68Z" transform="translate(0 -0.05)"/><rect x="17.68" y="14.08" width="1.04" height="6.58"/><rect x="14.91" y="16.85" width="6.58" height="1.04"/></svg>