<svg id="Layer_1" data-name="Layer 1" xmlns="http://www.w3.org/2000/svg" width="0.34in" height="0.33in" viewBox="0 0 24.58 23.76"><defs><style>.cls-1{fill:#3a3a3a;}.cls-2{fill:#fff;}</style></defs><title>bulkDeals-icon</title><rect class="cls-1" x="0.52" y="4.29" width="19.33" height="1.04"/><path class="cls-1" d="M20.37,21.5H0V4.66L3,0H17.34l3,4.66ZM1,20.46H19.33V5L16.78,1H3.6L1,5Z"/><rect class="cls-1" x="8.31" y="4.81" width="4.54" height="4.54"/><polyline class="cls-1" points="12.85 4.81 12.1 0.52 9.06 0.52 8.31 4.81"/><circle class="cls-2" cx="18.27" cy="17.45" r="5.79"/><path class="cls-1" d="M18.27,23.76a6.31,6.31,0,1,1,6.31-6.31A6.32,6.32,0,0,1,18.27,23.76Zm0-11.58a5.27,5.27,0,1,0,5.27,5.27A5.27,5.27,0,0,0,18.27,12.18Z"/><line class="cls-2" x1="18.27" y1="14.14" x2="18.27" y2="20.75"/><rect class="cls-1" x="17.75" y="14.14" width="1.04" height="6.61"/><line class="cls-2" x1="21.57" y1="17.45" x2="14.97" y2="17.45"/><rect class="cls-1" x="14.97" y="16.92" width="6.61" height="1.04"/></svg>