<svg id="Layer_1" data-name="Layer 1" xmlns="http://www.w3.org/2000/svg" width="0.22in" height="0.22in" viewBox="0 0 15.6 15.84"><defs><style>.cls-1{fill:#fff;}</style></defs><title>header-search-icon-uplift-desk</title><path class="cls-1" d="M6.58,13.16a6.58,6.58,0,1,1,6.58-6.58A6.59,6.59,0,0,1,6.58,13.16Zm0-10.27a3.69,3.69,0,1,0,3.69,3.69A3.69,3.69,0,0,0,6.58,2.89Z"/><path class="cls-1" d="M14.18,15.84a1.42,1.42,0,0,1-1-.45L9.3,11.31a1.42,1.42,0,0,1,2.07-1.95l3.85,4.08a1.42,1.42,0,0,1-1,2.39Z"/></svg>