<svg id="da33fd6a-33c4-4ad0-9f1a-ee8e71fe5dd8" data-name="Layer 1" xmlns="http://www.w3.org/2000/svg" width="0.25in" height="0.25in" viewBox="0 0 18 18"><title>header-phont-icon</title><path d="M7.14,8.33a5.57,5.57,0,0,0,2.79,2.82s.12.05.34-.13.62-.81.79-.83.16-.05.5.18,1.33.77,1.33.77.11,0,0,.51-.47,1.11-1.56,1.25a3.87,3.87,0,0,1-2.43-.69A7.9,7.9,0,0,1,5.52,8a2.42,2.42,0,0,1,0-1.75s.4-.7.64-.77A3.42,3.42,0,0,1,7,5.34c.08,0,.16,0,.36.41s.6,1.08.67,1.19A.33.33,0,0,1,8,7.4c-.18.16-.66.53-.74.64S7.1,8.19,7.14,8.33Z" transform="translate(0 0)"/><path d="M9,18a9,9,0,1,1,9-9A9,9,0,0,1,9,18ZM9,2.12A6.88,6.88,0,1,0,15.88,9,6.89,6.89,0,0,0,9,2.12Z" transform="translate(0 0)"/></svg>