<svg id="0cec2627-b4bf-4573-8230-0bbfb8d23620" data-name="0a177528-f095-48ab-83f8-c210de36e52b" xmlns="http://www.w3.org/2000/svg" width="0.43in" height="0.43in" viewBox="0 0 30.96 30.96"><title>like-icon-contact-page</title><path d="M15.44,31a15.48,15.48,0,1,1,.08,0Zm0-27.31A11.83,11.83,0,1,0,27.27,15.48v0A11.83,11.83,0,0,0,15.44,3.61Z" transform="translate(0 0)"/><path d="M11.6,20.92H10a1,1,0,0,1-1-1v-4a1.71,1.71,0,0,1,.28-1,.93.93,0,0,1,.68-.28H12.8a.52.52,0,0,0,.2-.05,1.25,1.25,0,0,0,.29-.2l.33-.31q.18-.18.34-.37l.3-.37.5-.64c.33-.42.57-.69.71-.83a2,2,0,0,0,.47-.86c.11-.39.2-.76.27-1.1a1.72,1.72,0,0,1,.42-.9l.08-.08h.13a1.55,1.55,0,0,1,1.37.54,2.56,2.56,0,0,1,.33,1.45,3.86,3.86,0,0,1-.45,1.55,4.59,4.59,0,0,0-.38,1h2.85A1.46,1.46,0,0,1,22,14.94a2,2,0,0,1-.22.83,1.14,1.14,0,0,1-.33.42,2,2,0,0,1,.08.21,1.87,1.87,0,0,1,.1.58,1.67,1.67,0,0,1-.42,1.12,1.52,1.52,0,0,1,.11.56,1.78,1.78,0,0,1-.18.77,1.33,1.33,0,0,1-.38.48,3.11,3.11,0,0,1,0,.37,1.67,1.67,0,0,1-.53,1.34,2.09,2.09,0,0,1-1.39.42H17.67a10.19,10.19,0,0,1-3.15-.67l-.26-.1-.32-.11-.3-.1L13.32,21,13,20.93l-.24,0h-.56Z" transform="translate(0 0)"/></svg>