<svg id="d2fb607b-4c13-45e4-9073-73738becd4a2" data-name="Layer 1" xmlns="http://www.w3.org/2000/svg" width="23.77" height="23.77" viewBox="0 0 23.77 23.77"><title>listing-learn-more-large-icon</title><path d="M11.89,23.76a11.89,11.89,0,1,1,11.87-11.9s0,0,0,0A11.9,11.9,0,0,1,11.89,23.76Zm0-20.89a9,9,0,1,0,9,9,9,9,0,0,0-9-9Z" transform="translate(0.01 0.01)"/><path d="M10.45,13.38v-.6a2.24,2.24,0,0,1,.28-1.16,2.94,2.94,0,0,1,1-.92,3.76,3.76,0,0,0,.81-.65,1,1,0,0,0,.25-.66.53.53,0,0,0-.27-.47,1.25,1.25,0,0,0-.69-.17,5.46,5.46,0,0,0-2.48.75l-1-1.91a7.27,7.27,0,0,1,3.65-1,3.93,3.93,0,0,1,2.46.69,2.24,2.24,0,0,1,.89,1.88,2.68,2.68,0,0,1-.4,1.48,4,4,0,0,1-1.26,1.17,4.9,4.9,0,0,0-.92.7.78.78,0,0,0-.19.52v.36Zm-.3,2.46a1.29,1.29,0,0,1,.37-1,1.57,1.57,0,0,1,1.1-.35,1.52,1.52,0,0,1,1.07.35,1.29,1.29,0,0,1,.37,1,1.26,1.26,0,0,1-.39,1,1.54,1.54,0,0,1-1.06.35,1.59,1.59,0,0,1-1.08-.35A1.25,1.25,0,0,1,10.15,15.84Z" transform="translate(0.01 0.01)"/></svg>