<svg id="Layer_1" data-name="Layer 1" xmlns="http://www.w3.org/2000/svg" width="0.33in" height="0.33in" viewBox="0 0 23.67 23.67"><defs><style>.cls-1{fill:#06a7ea;}</style></defs><title>listing-learn-more-large-icon-uplift-desk</title><path class="cls-1" d="M11.84,23.67A11.84,11.84,0,1,1,23.67,11.84,11.85,11.85,0,0,1,11.84,23.67Zm0-20.81a9,9,0,1,0,9,9A9,9,0,0,0,11.84,2.87Z"/><path class="cls-1" d="M10.41,13.33v-.6a2.23,2.23,0,0,1,.28-1.16,2.93,2.93,0,0,1,1-.92A3.75,3.75,0,0,0,12.5,10a1,1,0,0,0,.25-.66.53.53,0,0,0-.27-.47,1.25,1.25,0,0,0-.69-.17,5.44,5.44,0,0,0-2.47.75l-1-1.9a7.24,7.24,0,0,1,3.64-1,3.92,3.92,0,0,1,2.45.69,2.23,2.23,0,0,1,.89,1.87,2.67,2.67,0,0,1-.4,1.47,4,4,0,0,1-1.26,1.17,4.88,4.88,0,0,0-.92.7.78.78,0,0,0-.19.52v.36Zm-.3,2.45a1.29,1.29,0,0,1,.37-1,1.56,1.56,0,0,1,1.1-.35,1.51,1.51,0,0,1,1.07.35,1.29,1.29,0,0,1,.37,1,1.26,1.26,0,0,1-.39,1,1.53,1.53,0,0,1-1.06.35,1.58,1.58,0,0,1-1.08-.35A1.25,1.25,0,0,1,10.11,15.78Z"/></svg>