<svg id="Layer_1" data-name="Layer 1" xmlns="http://www.w3.org/2000/svg" width="0.16in" height="0.16in" viewBox="0 0 11.52 11.52"><defs><style>.cls-1{fill:#06a7ea;}.cls-2{fill:#fff;}</style></defs><title>listing-learn-more-small-icon-uplift-desk</title><circle class="cls-1" cx="5.76" cy="5.76" r="5.76"/><path class="cls-2" d="M4.83,7.08V6.68A1.46,1.46,0,0,1,5,5.92a1.92,1.92,0,0,1,.65-.6A2.45,2.45,0,0,0,6.2,4.9a.64.64,0,0,0,.16-.43.35.35,0,0,0-.17-.31A.82.82,0,0,0,5.73,4a3.57,3.57,0,0,0-1.62.49L3.47,3.29a4.75,4.75,0,0,1,2.39-.65,2.57,2.57,0,0,1,1.61.45A1.46,1.46,0,0,1,8,4.31a1.75,1.75,0,0,1-.26,1A2.64,2.64,0,0,1,7,6a3.2,3.2,0,0,0-.6.46.51.51,0,0,0-.12.34v.23Zm-.2,1.61A.85.85,0,0,1,4.87,8,1,1,0,0,1,5.6,7.8,1,1,0,0,1,6.3,8a.85.85,0,0,1,.25.65.83.83,0,0,1-.25.65,1,1,0,0,1-.69.23,1,1,0,0,1-.71-.23A.82.82,0,0,1,4.63,8.68Z"/></svg>