<svg id="a68380c3-6107-4252-93aa-ba0e788cb82c" data-name="0a177528-f095-48ab-83f8-c210de36e52b" xmlns="http://www.w3.org/2000/svg" width="0.43in" height="0.43in" viewBox="0 0 30.96 30.96"><title>location-button-contact-page</title><path d="M15.48,31a15.48,15.48,0,1,1,.08,0Zm0-27.31A11.83,11.83,0,1,0,27.31,15.52v0A11.83,11.83,0,0,0,15.48,3.65Z" transform="translate(-0.04 -0.04)"/><path d="M19.34,9.26a4.78,4.78,0,0,0-3.82-1.49A4.78,4.78,0,0,0,11.7,9.26a5.09,5.09,0,0,0-1.09,3.37c0,4.85,4.82,10.64,4.91,10.64s4.91-5.79,4.91-10.64a5.09,5.09,0,0,0-1.09-3.37Zm-3.82,6.07a2.76,2.76,0,1,1,2.87-2.76,2.82,2.82,0,0,1-2.87,2.76Z" transform="translate(-0.04 -0.04)"/></svg>