<svg id="b392da8c-7a3f-4dd8-b5c9-72eea2235d13" data-name="0a177528-f095-48ab-83f8-c210de36e52b" xmlns="http://www.w3.org/2000/svg" width="0.43in" height="0.43in" viewBox="0 0 30.96 30.96"><title>phone-icon-contact-page</title><path d="M15.44,31a15.48,15.48,0,1,1,.08,0Zm0-27.31A11.83,11.83,0,1,0,27.27,15.52v0A11.83,11.83,0,0,0,15.44,3.65Z" transform="translate(0 -0.04)"/><path d="M11.91,14.07a9.9,9.9,0,0,0,5,5s.21.09.6-.23,1.1-1.44,1.4-1.48.28-.09.89.32,2.36,1.37,2.36,1.37.2,0,0,.91a2.84,2.84,0,0,1-2.77,2.22A6.88,6.88,0,0,1,15,21a14,14,0,0,1-6-7.48,4.3,4.3,0,0,1,0-3.11S9.74,9.13,10.17,9a6.08,6.08,0,0,1,1.49-.25c.14,0,.28,0,.64.73s1.07,1.92,1.19,2.11a.59.59,0,0,1-.05.82c-.32.28-1.17.94-1.32,1.14S11.84,13.82,11.91,14.07Z" transform="translate(0 -0.04)"/></svg>