<svg id="0611bec3-7df4-437d-a1a4-b510dcd12ffa" data-name="Layer 1" xmlns="http://www.w3.org/2000/svg" width="23.04" height="23.63" viewBox="0 0 23.04 23.63"><title>wishList-icon</title><path d="M18.7,23.69H0V5.7l0,0L5.74.07H18.66V2.73H17.34V1.44H6.3l-5,4.84v16h16V13.73h1.37Z" transform="translate(0 -0.07)"/><path d="M6.7,6.47H1.22V5.1H5.34V1.29H6.7Z" transform="translate(0 -0.07)"/><circle cx="5.37" cy="12.47" r="0.66"/><circle cx="5.37" cy="15.03" r="0.66"/><circle cx="5.37" cy="17.58" r="0.66"/><rect x="7.13" y="12.11" width="6.34" height="0.71"/><rect x="7.13" y="14.67" width="6.34" height="0.71"/><rect x="7.13" y="17.22" width="6.34" height="0.71"/><path d="M18,12.64a55.13,55.13,0,0,1-4.18-4A2.8,2.8,0,0,1,13,6.76V6.24a2.64,2.64,0,0,1,2.26-2.56h.46A2.75,2.75,0,0,1,18,4.84a2.75,2.75,0,0,1,2.31-1.15h.46A2.64,2.64,0,0,1,23,6.24v.54a2.8,2.8,0,0,1-.85,1.9A51.12,51.12,0,0,1,18,12.64Z" transform="translate(0 -0.07)"/></svg>