<svg id="Layer_1" data-name="Layer 1" xmlns="http://www.w3.org/2000/svg" width="0.32in" height="0.33in" viewBox="0 0 23.17 23.76"><defs><style>.cls-1{fill:#3a3a3a;}</style></defs><title>wishList-icon</title><polygon class="cls-1" points="18.63 23.58 0.18 23.58 0.18 5.74 5.85 0.18 18.63 0.18 18.63 2.49 17.62 2.49 17.62 1.19 6.26 1.19 1.19 6.17 1.19 22.57 17.62 22.57 17.62 13.92 18.63 13.92 18.63 23.58"/><path class="cls-1" d="M18.81,23.76H0V5.67l.05-.05L5.77,0h13V2.68H17.44V1.38H6.34l-5,4.87V22.38H17.44V13.74h1.38ZM.36,23.4H18.45V14.1H17.8v8.64H1V6.09L6.19,1H17.8v1.3h.65v-2H5.92L.36,5.82Z"/><polygon class="cls-1" points="6.56 6.26 1.41 6.26 1.41 5.25 5.55 5.25 5.55 1.41 6.56 1.41 6.56 6.26"/><path class="cls-1" d="M6.74,6.44H1.23V5.06H5.37V1.23H6.74ZM1.6,6.08H6.38V1.6H5.73V5.43H1.6Z"/><circle class="cls-1" cx="5.4" cy="12.54" r="0.66"/><circle class="cls-1" cx="5.4" cy="15.11" r="0.66"/><circle class="cls-1" cx="5.4" cy="17.68" r="0.66"/><rect class="cls-1" x="7.17" y="12.18" width="6.38" height="0.71"/><rect class="cls-1" x="7.17" y="14.75" width="6.38" height="0.71"/><rect class="cls-1" x="7.17" y="17.32" width="6.38" height="0.71"/><path class="cls-1" d="M18.12,12.64c-.16.11-3.86-3.66-4.2-4a2.82,2.82,0,0,1-.85-1.91V6.21a2.65,2.65,0,0,1,2.27-2.57l.46,0a2.77,2.77,0,0,1,2.32,1.16,2.77,2.77,0,0,1,2.32-1.16l.46,0a2.65,2.65,0,0,1,2.27,2.57v.54a2.82,2.82,0,0,1-.85,1.91C22,9,18.28,12.75,18.12,12.64Z"/></svg>